<?xml version="1.0" encoding="UTF-8" standalone="no"?>
<!-- Created with Inkscape (http://www.inkscape.org/) -->

<svg
   width="1024"
   height="1024"
   viewBox="0 0 270.93313 270.93313"
   version="1.1"
   id="svg5"
   inkscape:version="1.2.1 (9c6d41e410, 2022-07-14, custom)"
   sodipodi:docname="skull_icon.svg"
   inkscape:export-filename="./favicon.png"
   inkscape:export-xdpi="12"
   inkscape:export-ydpi="12"
   xmlns:inkscape="http://www.inkscape.org/namespaces/inkscape"
   xmlns:sodipodi="http://sodipodi.sourceforge.net/DTD/sodipodi-0.dtd"
   xmlns="http://www.w3.org/2000/svg"
   xmlns:svg="http://www.w3.org/2000/svg">
  <sodipodi:namedview
     id="namedview7"
     pagecolor="#505050"
     bordercolor="#eeeeee"
     borderopacity="1"
     inkscape:pageshadow="0"
     inkscape:pageopacity="0"
     inkscape:pagecheckerboard="0"
     inkscape:document-units="mm"
     showgrid="false"
     inkscape:zoom="0.64877774"
     inkscape:rotation="-1"
     inkscape:cx="299.03328"
     inkscape:cy="929.40566"
     inkscape:window-width="1128"
     inkscape:window-height="683"
     inkscape:window-x="0"
     inkscape:window-y="32"
     inkscape:window-maximized="1"
     inkscape:current-layer="layer1"
     inkscape:showpageshadow="2"
     inkscape:deskcolor="#505050"
     showborder="false" />
  <defs
     id="defs2" />
  <g
     inkscape:label="Layer 1"
     inkscape:groupmode="layer"
     id="layer1">
    <path
       style="fill:#ffffff;stroke-width:0.194187;fill-opacity:1"
       d="m 143.04138,258.6552 c 10.92326,-3.33641 20.94825,1.62319 23.30877,-7.42653 2.3605,-9.04974 -6.65408,-17.97614 0.37139,-26.41857 7.02548,-8.44244 29.86749,-7.72686 34.12346,-15.73115 4.25595,-8.00432 -4.8091,-19.13849 -7.39702,-28.853 -2.58791,-9.71451 -6.47192,-22.83493 -7.32759,-29.59559 10.03536,4.52952 17.62733,5.57207 25.99777,0.91653 8.37041,-4.65554 10.71837,-7.93042 15.59194,-17.46233 4.87357,-9.53193 12.24548,-30.07187 8.67178,-63.844872 -3.57372,-33.772999 -14.29884,-48.011275 -25.12701,-55.413691 -10.82816,-7.4024185 -19.17024,-3.811783 -21.2572,-0.976253 -0.64996,0.955602 -0.61059,2.960837 0.37597,3.570557 2.75616,1.015171 5.72939,-4.61071 16.22496,6.115182 10.49558,10.725893 15.14498,35.265402 16.67928,56.216524 1.5343,20.951133 -0.92752,34.964123 -5.70455,46.110963 -4.77703,11.14684 -7.57888,12.25717 -12.42752,15.5017 -4.84861,3.2445 -13.30055,2.56579 -17.10685,1.63065 -3.8063,-0.93517 -5.9208,0.16614 -6.01981,0.0892 1.42986,-4.13565 -1.91901,-17.86006 -4.11704,-20.67893 -2.19802,-2.81884 -4.74432,-2.02538 -6.74956,-1.0987 -2.3172,1.17774 -3.30958,3.77666 -3.29057,5.34146 0.0191,1.5648 0.86698,2.70844 2.40708,6.30975 1.54009,3.60125 2.41518,10.80104 0.8883,15.46578 -1.52688,4.66473 -3.27706,15.9497 -13.85439,17.48405 -10.57733,1.53434 -14.37018,-10.84923 -14.12822,-19.06408 0.24197,-8.21484 6.78619,-26.65352 12.8307,-30.90486 6.04451,-4.2513 10.16575,-4.32727 8.12196,-6.07381 -1.10638,-0.87027 -6.08013,-0.10973 -10.30116,1.83151 -4.22104,1.94125 -9.5845,6.57159 -12.72998,11.35917 -3.14546,4.78759 -6.50734,14.04062 -6.88388,16.84191 -0.37654,2.8013 -0.44758,0.80931 -0.4526,0.18661 -0.005,-0.62272 0.0995,-1.00721 -1.44928,-4.69759 -1.54879,-3.69038 -8.91688,-12.39299 -13.66258,-15.60294 -4.74568,-3.20995 -8.61391,-4.42972 -11.73415,-5.47763 -3.53421,-1.48631 -7.308177,0.85037 -7.670699,4.4728 -0.13564,1.89574 -0.604032,2.813 2.585199,4.59369 3.18924,1.78068 6.43164,3.30311 9.1639,4.94501 12.07229,7.64713 16.12842,17.18242 11.73936,32.26932 -4.38909,15.08692 -26.898159,13.28536 -37.983914,3.33526 -11.085746,-9.95012 -12.100468,-22.31663 -3.077389,-36.63447 3.5614,-5.44775 8.512794,-7.54293 11.064004,-8.29688 2.551214,-0.75393 2.271873,-1.40137 1.876429,-2.43188 -0.395438,-1.03049 -0.888743,-1.48243 -4.867659,-0.58375 -16.017868,5.43694 -19.899266,18.71367 -21.624848,29.99143 -1.725583,11.27778 15.606315,32.42348 32.244587,35.95916 12.0615,2.35228 21.86031,-3.67132 27.74439,-12.41697 2.94261,-4.67788 5.67159,-10.22619 6.05712,-15.48029 2.20795,11.91681 12.05182,21.59847 22.02748,21.69787 9.97568,0.0994 20.12936,-8.24979 22.88931,-20.41858 0,0 3.37259,18.38329 5.67383,26.48956 1.90242,6.73649 7.50346,16.12181 7.45869,19.31466 -0.0448,3.19283 -2.65474,4.47178 -6.94605,6.13772 -4.2913,1.66594 -11.32592,3.78821 -16.98875,7.28945 -5.66283,3.50124 -10.41126,10.01785 -11.70942,15.85043 -0.94623,4.79872 5.03422,12.71207 2.91075,17.25129 -2.12348,4.53923 -16.96631,4.66804 -22.94514,7.5747 -5.97884,2.90665 -14.90931,9.60373 -20.82715,9.70174 -5.91784,0.0979 -6.58744,-12.37103 -11.80515,-15.77353 -5.217717,-3.40248 -16.208357,-2.87298 -21.741188,-6.79728 -5.532832,-3.9243 -4.6676,-12.47663 -2.147361,-17.53658 2.520238,-5.05998 7.176654,-15.86309 7.608068,-20.58391 0.431414,-4.72082 -0.247631,-10.89398 -3.609786,-14.32525 -7.508585,-7.64578 -20.44927,-9.53976 -27.327901,-10.36722 -6.878632,-0.82747 -15.905014,1.00624 -14.848327,-9.97006 1.056686,-10.97628 5.355036,-40.6072 6.091649,-51.12646 1.729209,-14.24762 -1.36186,-31.647945 0.638519,-42.842305 C 50.566714,64.400565 61.770798,45.87001 79.30051,32.736946 98.424085,21.207629 113.266,14.760985 132.30664,12.953429 c 3.00777,-0.213776 4.61017,-1.026592 5.86413,-2.803811 1.50788,-2.1880764 1.24215,-8.3301299 -2.43837,-9.57392111 C 132.05191,-0.66806499 122.82204,1.3368889 120.7525,1.7051332 85.720159,9.56861 55.681573,24.448623 40.665365,59.218231 33.73463,75.268712 37.450957,97.988014 37.994017,111.30926 c 0.543059,13.32122 -0.804137,30.25209 -1.854031,36.45678 -1.049887,6.20465 -1.410949,12.32946 -1.59373,17.91387 -0.182783,5.5844 -0.418452,12.86163 4.791117,15.74293 5.209571,2.88129 12.926363,4.25142 18.740386,5.61411 5.674282,2.29254 19.846313,5.56393 23.585849,10.64132 0.54623,0.74412 0.717145,1.16198 0.713894,2.45197 -0.604119,6.41801 -4.977729,12.09305 -7.359629,18.85422 -1.867692,4.32143 -3.421329,8.78469 -4.18118,13.20476 -0.522715,3.08991 1.260333,10.48203 5.401117,14.62641 4.140783,4.14437 14.393041,2.07542 22.669447,7.0506 8.276413,4.97516 6.627643,14.37156 14.235803,16.57213 7.60817,2.20059 19.26341,-8.4037 29.89832,-11.78316 z m -32.86653,-29.20873 c -0.18718,-1.71328 -3.81875,-8.90113 -5.89053,-11.4815 -2.07178,-2.58039 -1.62699,2.43061 -1.32818,3.44684 0.29882,1.0162 1.77728,8.80675 3.74714,9.78326 1.96989,0.97652 3.65877,-0.0353 3.47157,-1.7486 z m 16.40357,-0.13629 c 1.13882,-0.83644 1.24006,-1.71656 0.093,-4.73509 -1.14697,-3.01851 -2.46986,-6.77865 -3.83588,-9.69103 -1.36603,-2.91235 -2.00293,-3.44186 -2.38221,-3.06257 -0.37928,0.37928 -0.90695,1.20977 -0.57839,3.05744 0.32857,1.84766 1.63575,10.1327 3.14318,12.92406 1.50741,2.79133 2.4214,2.3436 3.56023,1.50719 z m 16.30724,-0.96363 c 1.51263,-1.21616 1.07219,-2.25581 0.48407,-4.54995 -0.58809,-2.29415 -1.09982,-4.39767 -1.13017,-7.2395 -0.0303,-2.84182 0.33833,-4.56231 0.80197,-5.36704 0.46364,-0.80474 0.22499,-1.13824 -0.23558,-1.13824 -0.46057,0 -1.6311,1.05072 -2.92549,3.71766 -1.29441,2.66694 -1.54027,8.66882 -1.26204,11.38284 0.27826,2.71403 2.7546,4.41038 4.26724,3.19423 z m -14.40538,-26.93223 c 0.62322,-0.35483 2.82943,-4.73476 1.9819,-5.53821 -0.84751,-0.80345 -1.9586,-0.0954 -2.58424,0.80662 0,0 0.0586,-5.69456 -0.15835,-8.13702 -0.21693,-2.44244 0.69377,-3.86296 -0.0828,-4.6394 -0.77643,-0.77645 -2.12508,0.31805 -2.79584,3.81386 -0.67077,3.49581 -0.40745,11.25296 0.31263,12.70956 0.72008,1.4566 2.70337,1.33937 3.32658,0.98455 z m 11.60756,-6.44484 c 0.95816,-1.03386 1.42935,-4.43074 1.43705,-8.14155 0.007,-3.71081 -0.32096,-3.39305 -1.33824,-3.42195 -1.01729,-0.0288 -1.48637,0.67396 -1.97095,1.96743 -0.48457,1.29344 -0.92057,6.63743 -0.67557,8.2712 0.24499,1.63378 1.58957,2.35874 2.54771,1.32487 z"
       id="path992"
       sodipodi:nodetypes="czzzzczzzzcczzzzzczczzzzzzczzzzzzcczczzczzczccczcczzzczzzzzzzczzczccczcczzzzcczcczzzczzzzzzzzzzzzzzzzzzzzzzzczzzzzzzzzzzz" />
  </g>
</svg>
